<svg width="20" height="24" viewBox="0 0 20 24" fill="none" xmlns="http://www.w3.org/2000/svg">
<path d="M9.58594 23.2969C9.77344 23.2969 10.0664 23.2265 10.3594 23.0742C17.0273 19.582 19.1719 17.8359 19.1719 13.6289V4.79297C19.1719 3.58594 18.6562 3.19922 17.6719 2.78906C16.3008 2.22656 11.918 0.632813 10.5586 0.164063C10.2422 0.058594 9.91406 0 9.58594 0C9.25781 0 8.92969 0.070313 8.625 0.164063C7.25391 0.609375 2.87109 2.23828 1.5 2.78906C0.527344 3.1875 0 3.58594 0 4.79297V13.6289C0 17.8359 2.26172 19.3828 8.8125 23.0742C9.11719 23.2383 9.39844 23.2969 9.58594 23.2969ZM4.30078 12.0351C4.30078 11.8945 4.37109 11.7187 4.5 11.5664L11.1211 3.25781C11.625 2.625 12.4688 3.04688 12.1641 3.83203L9.98438 9.69142H14.0742C14.3906 9.69142 14.625 9.91402 14.625 10.2305C14.625 10.3711 14.5547 10.5469 14.4258 10.6992L7.80469 19.0078C7.30078 19.6406 6.46875 19.2187 6.76172 18.4453L8.95312 12.5742H4.85156C4.54688 12.5742 4.30078 12.3515 4.30078 12.0351Z" fill="#FF9500"/>
</svg>
