<svg width="95" height="34" viewBox="0 0 95 34" fill="none" xmlns="http://www.w3.org/2000/svg">
<g clip-path="url(#clip0_922_49722)">
<path d="M10.3669 4.25H0.000488281V29.0417L10.3669 4.25Z" fill="#4C4C4D"/>
<path d="M17.6604 4.25H28.0133V29.0417L17.6604 4.25Z" fill="#4C4C4D"/>
<path d="M14.0135 13.3875L20.6115 29.0418H16.2826L14.3106 24.0578H9.48193L14.0135 13.3875Z" fill="#4C4C4D"/>
<path d="M44.926 20.0146L46.1484 23.5196C46.1889 23.6074 46.2497 23.6479 46.3578 23.6479H48.7079C48.8363 23.6479 48.8565 23.5871 48.8363 23.4588L43.9806 9.97231C43.9603 9.86425 43.94 9.84399 43.832 9.84399H40.9145C40.8335 9.84399 40.7862 9.90477 40.7862 9.99257C40.7457 10.7017 40.6849 10.9178 40.5971 11.1271L36.2682 23.4386C36.2479 23.5871 36.2952 23.6479 36.4168 23.6479H38.5171C38.6454 23.6479 38.7062 23.6074 38.7535 23.4791L39.9083 20.0146H44.926ZM40.5769 17.7252C41.2117 15.8072 42.0491 13.349 42.3868 11.9443H42.407C42.8257 13.4165 43.8117 16.334 44.2575 17.7252H40.5769Z" fill="#4C4C4D"/>
<path d="M55.0786 23.8566C56.3415 23.8566 57.6854 23.627 59.0496 23.0394C59.1576 22.9989 59.1779 22.9516 59.1779 22.8503C59.1374 22.4721 59.0901 21.9251 59.0901 21.5064V8.81004C59.0901 8.729 59.0901 8.68848 58.9888 8.68848H56.6994C56.6116 8.68848 56.5711 8.729 56.5711 8.83705V13.139C56.2131 13.0984 55.9633 13.0782 55.6661 13.0782C51.972 13.0782 49.7029 15.5161 49.7029 18.5619C49.7029 22.0939 52.0328 23.8566 55.0786 23.8566ZM56.5711 21.5064C56.1929 21.628 55.7742 21.6752 55.3487 21.6752C53.6739 21.6752 52.3029 20.7298 52.3029 18.4336C52.3029 16.4008 53.7144 15.1987 55.5851 15.1987C55.9633 15.1987 56.2942 15.2393 56.5711 15.3473V21.5064Z" fill="#4C4C4D"/>
<path d="M66.4801 13.0793C63.3262 13.0793 61.3745 15.4971 61.3745 18.4821C61.3745 21.1496 62.9278 23.8577 66.4328 23.8577C69.3975 23.8577 71.4776 21.6764 71.4776 18.4145C71.4776 15.5376 69.7149 13.0793 66.4801 13.0793ZM66.3518 15.1999C68.1346 15.1999 68.891 16.7329 68.891 18.4821C68.891 20.6431 67.7767 21.7169 66.4801 21.7169C64.8795 21.7169 63.934 20.373 63.934 18.4348C63.934 16.4425 64.9403 15.1999 66.3518 15.1999Z" fill="#4C4C4D"/>
<path d="M73.8454 8.68848C73.7576 8.68848 73.6968 8.729 73.6968 8.83705V23.2082C73.6968 23.269 73.7576 23.3771 73.8454 23.3973C74.8516 23.708 75.9051 23.8566 76.9924 23.8566C80.1057 23.8566 83.1312 21.9251 83.1312 18.0352C83.1312 15.219 81.1998 13.0782 78.1743 13.0782C77.4787 13.0782 76.8303 13.1862 76.2631 13.3753L76.236 8.85731C76.236 8.70874 76.1955 8.68848 76.047 8.68848H73.8454ZM80.5447 18.2918C80.5447 20.6217 78.9509 21.7157 77.2288 21.7157C76.8709 21.7157 76.5535 21.6955 76.2631 21.6077V15.4756C76.594 15.3473 76.9924 15.2393 77.7285 15.2393C79.3899 15.2393 80.5447 16.2928 80.5447 18.2918Z" fill="#4C4C4D"/>
<path d="M91.6753 19.0493C92.7018 19.0493 93.546 19.0291 93.8364 18.9615C93.9444 18.9413 93.985 18.9008 94.0052 18.813C94.066 18.5834 94.093 18.1039 94.093 17.5163C94.093 15.5173 92.8909 13.0793 89.7844 13.0793C86.6103 13.0793 84.8477 15.6659 84.8477 18.5834C84.8477 21.1699 86.2118 23.8577 90.0343 23.8577C91.466 23.8577 92.3912 23.6281 93.1881 23.2499C93.2691 23.2094 93.3096 23.1419 93.3096 23.0203V21.2712C93.3096 21.1699 93.2488 21.1496 93.1881 21.1902C92.3912 21.5278 91.5267 21.6967 90.5813 21.6967C88.4405 21.6967 87.468 20.5148 87.4072 19.0493H91.6753ZM87.4072 17.2394C87.576 16.2129 88.2243 15.0986 89.6763 15.0986C91.2769 15.0986 91.6956 16.4425 91.6956 17.0503C91.6956 17.0706 91.6956 17.1584 91.6956 17.2192C91.6078 17.2394 91.3376 17.2394 90.5407 17.2394H87.4072Z" fill="#4C4C4D"/>
</g>
<defs>
<clipPath id="clip0_922_49722">
<rect width="94.2083" height="34" fill="white"/>
</clipPath>
</defs>
</svg>
