<svg width="78" height="34" viewBox="0 0 78 34" fill="none" xmlns="http://www.w3.org/2000/svg">
<g clip-path="url(#clip0_922_49717)">
<path fill-rule="evenodd" clip-rule="evenodd" d="M48.119 26.7792C43.6115 30.1016 37.0781 31.8743 31.453 31.8743C23.5657 31.8743 16.4651 28.957 11.0932 24.1051C10.6711 23.7236 11.0493 23.2036 11.5558 23.5007C17.3531 26.8738 24.5212 28.903 31.9257 28.903C36.9195 28.903 42.4129 27.8698 47.464 25.7258C48.2271 25.4016 48.8652 26.2255 48.119 26.7792Z" fill="#4C4C4D"/>
<path fill-rule="evenodd" clip-rule="evenodd" d="M49.993 24.6352C49.419 23.8992 46.1844 24.2875 44.7326 24.4596C44.2903 24.5137 44.2227 24.1288 44.6211 23.8519C47.1973 22.0388 51.4246 22.5621 51.9176 23.1699C52.4105 23.781 51.7893 28.0184 49.3684 30.0409C48.997 30.3515 48.6424 30.1861 48.8079 29.7741C49.3515 28.4168 50.5704 25.3747 49.993 24.6352Z" fill="#4C4C4D"/>
<path fill-rule="evenodd" clip-rule="evenodd" d="M44.835 11.0526V9.29008C44.835 9.02335 45.0376 8.8444 45.2807 8.8444H53.1714C53.4246 8.8444 53.6272 9.02672 53.6272 9.29008V10.7993C53.6238 11.0526 53.4111 11.3835 53.0329 11.9068L48.9441 17.7446C50.4635 17.7075 52.0673 17.9337 53.4449 18.7103C53.7555 18.8859 53.8399 19.1425 53.8635 19.3957V21.2764C53.8635 21.533 53.5799 21.8335 53.2828 21.6782C50.8551 20.4053 47.6306 20.2668 44.9464 21.6917C44.6729 21.8403 44.3859 21.5431 44.3859 21.2865V19.5004C44.3859 19.2134 44.3893 18.7238 44.6763 18.2883L49.4134 11.4949H45.2908C45.0376 11.4949 44.835 11.3159 44.835 11.0526Z" fill="#4C4C4D"/>
<path fill-rule="evenodd" clip-rule="evenodd" d="M16.0509 22.0496H13.6503C13.4207 22.0327 13.2384 21.8605 13.2215 21.6411V9.3205C13.2215 9.07402 13.4275 8.87818 13.6841 8.87818H15.9226C16.1556 8.88831 16.3413 9.06726 16.3582 9.29011V10.9007H16.4021C16.9862 9.34413 18.0835 8.6182 19.5624 8.6182C21.0649 8.6182 22.0036 9.34413 22.6789 10.9007C23.2596 9.34413 24.5798 8.6182 25.9945 8.6182C27.0007 8.6182 28.1014 9.0335 28.7733 9.96539C29.533 11.002 29.3777 12.5078 29.3777 13.828L29.3743 21.6039C29.3743 21.8504 29.1683 22.0496 28.9117 22.0496H26.5145C26.2748 22.0327 26.0823 21.8403 26.0823 21.6039V15.0739C26.0823 14.554 26.1296 13.2574 26.0148 12.7644C25.8358 11.9372 25.299 11.7042 24.6034 11.7042C24.0227 11.7042 23.4149 12.0925 23.1684 12.7138C22.922 13.3351 22.9456 14.375 22.9456 15.0739V21.6039C22.9456 21.8504 22.7396 22.0496 22.483 22.0496H20.0858C19.8427 22.0327 19.6536 21.8403 19.6536 21.6039L19.6502 15.0739C19.6502 13.6997 19.8764 11.6772 18.1713 11.6772C16.446 11.6772 16.5135 13.6491 16.5135 15.0739V21.6039C16.5135 21.8504 16.3075 22.0496 16.0509 22.0496Z" fill="#4C4C4D"/>
<path fill-rule="evenodd" clip-rule="evenodd" d="M60.4205 8.6182C63.9826 8.6182 65.9105 11.6772 65.9105 15.5669C65.9105 19.3248 63.78 22.3062 60.4205 22.3062C56.9225 22.3062 55.0182 19.2472 55.0182 15.4352C55.0182 11.5996 56.9461 8.6182 60.4205 8.6182ZM60.4407 11.1336C58.6715 11.1336 58.56 13.5444 58.56 15.0469C58.56 16.5528 58.5364 19.7671 60.4205 19.7671C62.2809 19.7671 62.3686 17.1741 62.3686 15.5939C62.3686 14.554 62.3247 13.3114 62.0107 12.3255C61.7406 11.4679 61.2038 11.1336 60.4407 11.1336Z" fill="#4C4C4D"/>
<path fill-rule="evenodd" clip-rule="evenodd" d="M70.5296 22.0496H68.139C67.8993 22.0327 67.7069 21.8403 67.7069 21.6039L67.7035 9.27998C67.7238 9.05376 67.923 8.87818 68.1661 8.87818H70.3911C70.6005 8.88831 70.7727 9.03012 70.8199 9.22258V11.1066H70.8638C71.5357 9.42179 72.4778 8.6182 74.1356 8.6182C75.2126 8.6182 76.2627 9.00649 76.938 10.0701C77.566 11.056 77.566 12.7138 77.566 13.9057V21.6613C77.539 21.8774 77.3398 22.0496 77.1034 22.0496H74.6961C74.4766 22.0327 74.2943 21.8707 74.2706 21.6613V14.9693C74.2706 13.6221 74.4259 11.6502 72.7681 11.6502C72.184 11.6502 71.6472 12.0419 71.3804 12.6361C71.0428 13.3891 70.9989 14.1387 70.9989 14.9693V21.6039C70.9955 21.8504 70.7862 22.0496 70.5296 22.0496Z" fill="#4C4C4D"/>
<path fill-rule="evenodd" clip-rule="evenodd" d="M38.5447 16.1645C38.5447 17.0998 38.5683 17.8797 38.0956 18.7103C37.7141 19.3856 37.1064 19.8009 36.4344 19.8009C35.5127 19.8009 34.9725 19.0986 34.9725 18.062C34.9725 16.0159 36.8059 15.6445 38.5447 15.6445V16.1645ZM40.9656 22.0158C40.8069 22.1576 40.5773 22.1678 40.3984 22.0732C39.6015 21.4114 39.4563 21.1042 39.0208 20.4728C37.704 21.8166 36.7687 22.2184 35.0636 22.2184C33.0411 22.2184 31.4711 20.9725 31.4711 18.4773C31.4711 16.5291 32.5246 15.2022 34.0304 14.5539C35.3337 13.9799 37.1536 13.8786 38.5447 13.72V13.4093C38.5447 12.8387 38.5886 12.1634 38.251 11.6705C37.9606 11.2282 37.4001 11.0458 36.9038 11.0458C35.9888 11.0458 35.175 11.5151 34.9758 12.4876C34.9353 12.7036 34.7766 12.9164 34.5572 12.9265L32.2308 12.6766C32.035 12.6327 31.8155 12.4741 31.8729 12.1736C32.4064 9.35086 34.959 8.5 37.2414 8.5C38.4097 8.5 39.9358 8.81063 40.8576 9.69525C42.0258 10.7858 41.9144 12.2411 41.9144 13.8246V17.5657C41.9144 18.6901 42.3803 19.183 42.8193 19.7908C42.9712 20.0069 43.005 20.2668 42.8091 20.4289C42.3195 20.8375 41.4484 21.5972 40.969 22.0226L40.9656 22.0158Z" fill="#4C4C4D"/>
<path fill-rule="evenodd" clip-rule="evenodd" d="M7.07299 16.1645C7.07299 17.0997 7.09663 17.8797 6.62393 18.7103C6.24239 19.3856 5.63801 19.8009 4.96273 19.8009C4.04097 19.8009 3.50412 19.0986 3.50412 18.062C3.50412 16.0159 5.33751 15.6445 7.07299 15.6445V16.1645ZM9.49389 22.0158C9.3352 22.1576 9.1056 22.1678 8.92665 22.0732C8.12981 21.4114 7.988 21.1042 7.54907 20.4728C6.23226 21.8166 5.30037 22.2184 3.5919 22.2184C1.5728 22.2184 -0.000610352 20.9725 -0.000610352 18.4773C-0.000610352 16.5291 1.05621 15.2022 2.55872 14.5539C3.86202 13.9799 5.68191 13.8786 7.07299 13.72V13.4093C7.07299 12.8387 7.11689 12.1634 6.78262 11.6705C6.48887 11.2281 5.92839 11.0458 5.43543 11.0458C4.52042 11.0458 3.70332 11.5151 3.50412 12.4876C3.4636 12.7036 3.30491 12.9164 3.08882 12.9265L0.759085 12.6766C0.563252 12.6327 0.34716 12.474 0.401183 12.1735C0.938035 9.35086 3.48723 8.5 5.7697 8.5C6.93793 8.5 8.46408 8.81063 9.38584 9.69525C10.5541 10.7858 10.4427 12.2411 10.4427 13.8246V17.5657C10.4427 18.69 10.9086 19.183 11.3475 19.7908C11.5029 20.0068 11.5366 20.2668 11.3408 20.4289C10.8512 20.8374 9.98009 21.5971 9.50064 22.0226L9.49389 22.0158Z" fill="#4C4C4D"/>
</g>
<defs>
<clipPath id="clip0_922_49717">
<rect width="77.9166" height="34" fill="white"/>
</clipPath>
</defs>
</svg>
