<svg width="79" height="22" viewBox="0 0 79 22" fill="none" xmlns="http://www.w3.org/2000/svg">
<path d="M10.8115 19.8803C9.62868 20.088 8.42506 20.1503 7.17997 20.3161L3.38227 9.19316V20.7935C2.19945 20.918 1.12038 21.084 -0.000244141 21.25V0H3.15414L7.47045 12.0571V0H10.8115V19.8803ZM17.3484 7.78199C18.6351 7.78199 20.6065 7.71971 21.7893 7.71971V11.04C20.3159 11.04 18.5936 11.04 17.3484 11.1022V16.0413C19.2992 15.9168 21.2498 15.7506 23.2212 15.6884V18.884L14.028 19.6105V0H23.2212V3.32032H17.3484V7.78199ZM35.5686 3.32039H32.1238V18.5938C31.0032 18.5938 29.8825 18.5938 28.8036 18.6352V3.32039H25.3588V0H35.5687L35.5686 3.32039ZM40.964 7.55378H45.5088V10.874H40.964V18.4071H37.7058V0H46.9822V3.32032H40.964V7.55378ZM52.3776 15.5017C54.2661 15.5431 56.1752 15.6886 58.0222 15.7922V19.071C55.0547 18.8841 52.0871 18.6976 49.0574 18.6352V0H52.3776V15.5017ZM60.8237 19.2993C61.882 19.3617 63.0026 19.4239 64.0817 19.5483V0H60.8237V19.2993ZM78.629 0L74.4162 10.1062L78.629 21.25C77.3837 21.084 76.1386 20.8557 74.8934 20.6481L72.5071 14.5057L70.0793 20.1503C68.8755 19.9426 67.7134 19.8803 66.51 19.7143L70.7848 9.98161L66.9249 0H70.4941L72.673 5.58229L74.9973 0H78.629V0Z" fill="#4C4C4D"/>
</svg>
