<svg width="68" height="34" viewBox="0 0 68 34" fill="none" xmlns="http://www.w3.org/2000/svg">
<g clip-path="url(#clip0_922_49705)">
<path d="M0.000854492 25.0714L6.98108 14.2099H0.827754C0.775607 13.897 0.753259 13.5544 0.753259 13.1744C0.753259 12.8094 0.775607 12.4742 0.827754 12.1688H10.7878L10.9144 12.504L3.88207 23.3878H10.4749C10.5271 23.7305 10.5494 24.088 10.5494 24.4456C10.5494 24.7883 10.5271 25.1161 10.4749 25.4289H0.127497L0.000854492 25.0714Z" fill="#4C4C4D"/>
<path d="M20.1445 16.6908C20.1445 15.6702 19.8837 14.9699 19.3697 14.5677C18.8557 14.1728 18.1033 13.9717 17.12 13.9717C16.5166 13.9717 15.9504 14.0164 15.4289 14.1132C14.9 14.2101 14.3934 14.3293 13.8869 14.4857C13.5591 13.9195 13.3952 13.2342 13.3952 12.4445C13.9837 12.2583 14.6244 12.1093 15.3321 12.005C16.0398 11.9007 16.7177 11.8486 17.3732 11.8486C19.0941 11.8486 20.4052 12.2434 21.3066 13.0256C22.2006 13.8078 22.655 15.0668 22.655 16.7876V25.0864C22.0516 25.2205 21.3215 25.3695 20.4574 25.511C19.5932 25.66 18.7142 25.7271 17.8202 25.7271C16.9784 25.7271 16.2111 25.6526 15.5332 25.4961C14.8553 25.3397 14.2742 25.0939 13.7975 24.7437C13.3207 24.4011 12.9557 23.9615 12.6949 23.4252C12.4342 22.8888 12.3076 22.2407 12.3076 21.4883C12.3076 20.7508 12.4565 20.0952 12.762 19.5365C13.06 18.9778 13.4697 18.5085 13.9912 18.1434C14.5052 17.771 15.1011 17.4953 15.779 17.3165C16.4495 17.1377 17.1572 17.0409 17.9022 17.0409C18.4534 17.0409 18.9079 17.0558 19.258 17.0781C19.6081 17.1005 19.9061 17.1377 20.1519 17.1675V16.6908H20.1445ZM20.1445 19.2013C19.8837 19.164 19.556 19.1342 19.1611 19.097C18.7663 19.0597 18.4311 19.0448 18.1554 19.0448C17.0827 19.0448 16.2707 19.246 15.712 19.6408C15.1533 20.0356 14.8702 20.639 14.8702 21.451C14.8702 21.9651 14.967 22.3748 15.1533 22.6653C15.3395 22.9558 15.5779 23.1793 15.861 23.3358C16.1441 23.4922 16.457 23.5891 16.8071 23.6189C17.1498 23.6561 17.4775 23.671 17.7904 23.671C18.1852 23.671 18.595 23.6487 19.0196 23.604C19.4442 23.5593 19.8167 23.4997 20.1445 23.4103V19.2013Z" fill="#4C4C4D"/>
<path d="M25.4485 12.1693C25.6198 12.1321 25.7986 12.1097 25.9774 12.0948C26.1562 12.0799 26.3424 12.0725 26.5361 12.0725C26.7075 12.0725 26.8863 12.0799 27.0799 12.0948C27.2662 12.1097 27.4524 12.1395 27.6238 12.1693C27.6387 12.2066 27.661 12.3109 27.6908 12.4896C27.7132 12.6684 27.743 12.8621 27.7653 13.0707C27.7877 13.2793 27.8175 13.473 27.8398 13.6667C27.8622 13.8604 27.8771 13.9796 27.8771 14.0317C28.0484 13.7561 28.257 13.4879 28.4954 13.2272C28.7337 12.9664 29.0243 12.7355 29.3595 12.5269C29.6947 12.3183 30.0747 12.1544 30.4993 12.0352C30.9239 11.916 31.3932 11.8564 31.9073 11.8564C32.682 11.8564 33.4046 11.9831 34.0676 12.2438C34.7306 12.5045 35.2968 12.8994 35.7736 13.4432C36.2503 13.987 36.6154 14.6798 36.8835 15.5142C37.1517 16.3485 37.2858 17.3393 37.2858 18.4791C37.2858 20.7586 36.6675 22.5391 35.4383 23.8204C34.2017 25.1017 32.4585 25.7498 30.2013 25.7498C29.8214 25.7498 29.434 25.7275 29.0392 25.6754C28.6444 25.6232 28.2942 25.5562 28.0037 25.4668V31.5456C27.7951 31.5828 27.5791 31.6052 27.3407 31.6201C27.1097 31.635 26.8937 31.6424 26.7075 31.6424C26.5212 31.6424 26.3052 31.635 26.0743 31.6201C25.8433 31.6052 25.6273 31.5754 25.441 31.5456V12.1693H25.4485ZM28.0111 23.2617C28.3389 23.3809 28.6742 23.4703 29.0168 23.5224C29.3595 23.5746 29.8065 23.5969 30.3652 23.5969C30.9835 23.5969 31.5571 23.5001 32.0711 23.2989C32.5852 23.0978 33.0321 22.7924 33.4046 22.3826C33.7771 21.9655 34.0676 21.444 34.2837 20.8182C34.4997 20.1925 34.604 19.4401 34.604 18.5834C34.604 17.2052 34.3507 16.1101 33.8441 15.2981C33.3376 14.4861 32.5032 14.0838 31.3485 14.0838C30.9165 14.0838 30.5067 14.1583 30.1045 14.3148C29.7096 14.4712 29.3521 14.7022 29.0466 15.015C28.7337 15.3279 28.4879 15.7153 28.2942 16.1921C28.1005 16.6688 28.0111 17.2276 28.0111 17.8831V23.2617Z" fill="#4C4C4D"/>
<path d="M40.4742 14.1801H38.7906C38.7534 14.0386 38.731 13.8821 38.7161 13.7034C38.7012 13.5246 38.6938 13.3458 38.6938 13.1744C38.6938 13.0031 38.7012 12.8243 38.7161 12.6455C38.731 12.4667 38.7608 12.3028 38.7906 12.1688H42.9847V25.4364C42.7985 25.4736 42.5824 25.496 42.3515 25.5109C42.1206 25.5258 41.9045 25.5332 41.7183 25.5332C41.547 25.5332 41.3458 25.5258 41.1074 25.5109C40.8765 25.496 40.6605 25.4662 40.4742 25.4364V14.1801Z" fill="#4C4C4D"/>
<path d="M48.4899 19.4324C48.5272 20.8776 48.8996 21.9429 49.6148 22.6134C50.33 23.2838 51.3878 23.619 52.7809 23.619C54.0026 23.619 55.1722 23.403 56.2747 22.9709C56.4162 23.2317 56.528 23.5445 56.6099 23.917C56.6993 24.2895 56.744 24.6545 56.7664 25.0196C56.2002 25.2579 55.5744 25.4442 54.8891 25.5634C54.2112 25.6826 53.4513 25.7422 52.6244 25.7422C51.4176 25.7422 50.3821 25.5708 49.518 25.2356C48.6538 24.9004 47.9461 24.4236 47.3874 23.8127C46.8287 23.2019 46.4189 22.4793 46.1582 21.6375C45.8975 20.8031 45.7708 19.8868 45.7708 18.8811C45.7708 17.8978 45.8975 16.9815 46.1433 16.1248C46.3891 15.2681 46.7765 14.5306 47.2905 13.8974C47.8046 13.2716 48.4601 12.765 49.2423 12.4C50.0245 12.0275 50.9557 11.8413 52.021 11.8413C52.9373 11.8413 53.7344 11.9977 54.4272 12.3106C55.12 12.6235 55.6936 13.0481 56.163 13.5919C56.6248 14.1358 56.9824 14.7839 57.2208 15.5288C57.4592 16.2812 57.5858 17.0932 57.5858 17.9723C57.5858 18.2107 57.5784 18.4714 57.556 18.7321C57.5411 19.0003 57.5188 19.2313 57.5039 19.4175H48.4899V19.4324ZM55.0604 17.5179C55.0604 17.0336 54.9934 16.5718 54.8667 16.1322C54.7401 15.6927 54.5464 15.3128 54.3006 14.985C54.0473 14.6572 53.7344 14.3965 53.347 14.1954C52.9596 13.9942 52.4978 13.8974 51.9614 13.8974C50.911 13.8974 50.1065 14.2177 49.5403 14.8509C48.9816 15.4916 48.6389 16.3781 48.5197 17.5179H55.0604Z" fill="#4C4C4D"/>
<path d="M60.4167 12.1688C60.6029 12.1315 60.7892 12.1092 60.9605 12.0943C61.1319 12.0794 61.3106 12.0719 61.5043 12.0719C61.6906 12.0719 61.8843 12.0794 62.0705 12.0943C62.2567 12.1092 62.4355 12.139 62.5845 12.1688C62.6367 12.4295 62.6888 12.7647 62.741 13.1893C62.7931 13.614 62.8154 13.9715 62.8154 14.2621C63.1805 13.6736 63.6572 13.167 64.2532 12.7349C64.8492 12.3028 65.609 12.0868 66.5402 12.0868C66.6818 12.0868 66.8233 12.0943 66.9648 12.1017C67.1138 12.1092 67.233 12.1241 67.3373 12.139C67.3746 12.2954 67.3969 12.4593 67.4118 12.6306C67.4267 12.802 67.4342 12.9808 67.4342 13.1744C67.4342 13.383 67.4193 13.5991 67.3969 13.8226C67.3746 14.046 67.3373 14.2621 67.3075 14.4707C67.166 14.4334 67.0244 14.4185 66.8829 14.4185C66.7339 14.4185 66.6222 14.4185 66.5328 14.4185C66.0709 14.4185 65.6239 14.4856 65.1993 14.6122C64.7747 14.7388 64.3948 14.9698 64.0595 15.2976C63.7243 15.6253 63.4561 16.0723 63.255 16.6459C63.0538 17.2121 62.957 17.9496 62.957 18.8436V25.4364C62.7707 25.4736 62.5547 25.496 62.3238 25.5109C62.0928 25.5258 61.8768 25.5332 61.6906 25.5332C61.5043 25.5332 61.2883 25.5258 61.0574 25.5109C60.8264 25.496 60.6029 25.4662 60.3943 25.4364V12.1688H60.4167Z" fill="#4C4C4D"/>
<path d="M45.4206 4.36192H42.9176L44.6906 2.58892C44.549 2.39524 44.3926 2.209 44.2287 2.03766C44.0573 1.86632 43.8786 1.70988 43.6774 1.57579L41.9044 3.34878V0.845729C41.6735 0.808481 41.4351 0.786133 41.1893 0.786133H41.1818C40.936 0.786133 40.6976 0.808481 40.4667 0.845729V3.34878L38.6937 1.57579C38.5 1.71733 38.3137 1.87377 38.1424 2.03766C37.9711 2.209 37.8221 2.38779 37.6805 2.58892L39.461 4.36192H36.9579C36.9579 4.36192 36.8983 4.83124 36.8983 5.07707C36.8983 5.32291 36.9207 5.56129 36.9579 5.79223H39.461L37.688 7.56522C37.9636 7.9526 38.3063 8.29528 38.7011 8.57836L40.4741 6.80537V9.30842C40.7051 9.34566 40.9434 9.36801 41.1893 9.36801H41.1967C41.4426 9.36801 41.6809 9.34566 41.9119 9.30842V6.80537L43.6849 8.57836C43.8786 8.43682 44.0648 8.28038 44.2361 8.11649C44.4075 7.94515 44.5639 7.76636 44.698 7.56522L42.925 5.79223H45.4281C45.4653 5.56129 45.4877 5.32291 45.4877 5.07707V5.06962C45.4802 4.83124 45.4653 4.59285 45.4206 4.36192ZM42.262 5.08452C42.262 5.40485 42.2024 5.71029 42.0981 5.99337C41.815 6.09766 41.5096 6.15726 41.1893 6.15726C40.8689 6.15726 40.5635 6.09766 40.2804 5.99337C40.1761 5.71029 40.1165 5.40485 40.1165 5.08452V5.07707C40.1165 4.75674 40.1761 4.45131 40.2804 4.16823C40.5635 4.06393 40.8689 4.00434 41.1893 4.00434C41.5096 4.00434 41.815 4.06393 42.0981 4.16823C42.2024 4.45131 42.262 4.75674 42.262 5.08452Z" fill="#4C4C4D"/>
</g>
<defs>
<clipPath id="clip0_922_49705">
<rect width="68" height="34" fill="white"/>
</clipPath>
</defs>
</svg>
