<svg width="70" height="16" viewBox="0 0 70 16" fill="none" xmlns="http://www.w3.org/2000/svg">
<path fill-rule="evenodd" clip-rule="evenodd" d="M56.4592 4.67304C56.7242 5.13036 56.811 5.65068 56.8396 6.23563L56.8772 7.01529V12.4672L56.9157 13.2476C56.9926 14.5223 57.9326 15.4647 59.217 15.5449L59.9934 15.5833V7.01529L60.0319 6.23563C60.0638 5.65722 60.1497 5.12709 60.4188 4.66649C60.6931 4.19406 61.0868 3.8021 61.5605 3.52996C62.0341 3.25783 62.571 3.11509 63.1173 3.11608C63.6636 3.11708 64.2 3.26177 64.6726 3.53563C65.1453 3.80949 65.5376 4.20289 65.8102 4.67631C66.0752 5.13363 66.1579 5.66377 66.1898 6.23563L66.2282 7.01283V12.4672L66.2667 13.2476C66.3468 14.5288 67.2795 15.4713 68.568 15.5449L69.3444 15.5833V6.23563C69.3444 4.5827 68.6879 2.99743 67.5194 1.8284C66.3508 0.65937 64.7658 0.0022892 63.1129 0.00163841C62.2282 0.000705412 61.3535 0.18858 60.5472 0.552711C59.7409 0.916842 59.0216 1.44884 58.4374 2.11318C57.8529 1.44911 57.1335 0.917233 56.3273 0.552994C55.5211 0.188755 54.6465 0.00051581 53.7619 0.000820144C52.4676 0.000820144 51.2666 0.393513 50.2718 1.07172C49.6648 0.39433 48.3067 0.000820144 47.5271 0.000820144V15.5833L48.3067 15.5449C49.6108 15.459 50.5533 14.5419 50.604 13.2476L50.6457 12.4672V7.01529L50.6841 6.23563C50.7169 5.64741 50.7987 5.13036 51.0646 4.66977C51.3391 4.19763 51.7326 3.80576 52.2059 3.53329C52.6792 3.26082 53.2157 3.11728 53.7619 3.117C54.3084 3.11711 54.8453 3.26094 55.3188 3.53405C55.7922 3.80717 56.1855 4.19996 56.4592 4.67304ZM3.11605 15.5457L3.89571 15.5833H15.5824L15.5439 14.8061C15.4384 13.525 14.5311 12.5891 13.2459 12.5056L12.4662 12.4672H5.45502L14.8027 3.11618L14.7643 2.33979C14.7037 1.04554 13.758 0.110447 12.4662 0.039271L11.6866 0.00409251L-0.00012207 0.000820144L0.038329 0.780478C0.140593 2.04936 1.06096 3.00492 2.33558 3.07855L3.11605 3.117H10.1272L0.779535 12.468L0.817986 13.2476C0.894889 14.5321 1.82181 15.4623 3.11605 15.5449V15.5457ZM44.4682 2.28171C45.1918 3.00518 45.7658 3.86411 46.1574 4.80945C46.5491 5.75478 46.7506 6.76801 46.7506 7.79126C46.7506 8.81451 46.5491 9.82774 46.1574 10.7731C45.7658 11.7184 45.1918 12.5773 44.4682 13.3008C43.0062 14.7616 41.0241 15.5821 38.9574 15.5821C36.8907 15.5821 34.9086 14.7616 33.4466 13.3008C30.4041 10.2583 30.4041 5.32425 33.4466 2.28171C34.1696 1.55848 35.0279 0.984738 35.9726 0.593241C36.9173 0.201745 37.9299 0.000161503 38.9525 1.87821e-06C39.9767 -0.000709245 40.9911 0.200519 41.9375 0.592176C42.884 0.983833 43.7439 1.55823 44.4682 2.28253V2.28171ZM42.2634 4.48815C43.1397 5.36518 43.632 6.55429 43.632 7.79412C43.632 9.03396 43.1397 10.2231 42.2634 11.1001C41.3863 11.9765 40.1972 12.4688 38.9574 12.4688C37.7175 12.4688 36.5284 11.9765 35.6514 11.1001C34.775 10.2231 34.2828 9.03396 34.2828 7.79412C34.2828 6.55429 34.775 5.36518 35.6514 4.48815C36.5284 3.61178 37.7175 3.1195 38.9574 3.1195C40.1972 3.1195 41.3863 3.61178 42.2634 4.48815ZM22.6001 1.87821e-06C23.6228 0.000268945 24.6354 0.201981 25.5801 0.593619C26.5248 0.985258 27.3831 1.55915 28.106 2.28253C31.1494 5.32425 31.1494 10.2591 28.106 13.3008C26.644 14.7616 24.6619 15.5821 22.5952 15.5821C20.5285 15.5821 18.5464 14.7616 17.0844 13.3008C14.0419 10.2583 14.0419 5.32425 17.0844 2.28171C17.8074 1.55848 18.6657 0.984738 19.6104 0.593241C20.5551 0.201745 21.5677 0.000161503 22.5903 1.87821e-06H22.6001ZM25.9012 4.48651C26.7778 5.36357 27.2702 6.55286 27.2702 7.7929C27.2702 9.03294 26.7778 10.2222 25.9012 11.0993C25.0242 11.9757 23.8351 12.4679 22.5952 12.4679C21.3554 12.4679 20.1663 11.9757 19.2892 11.0993C18.4129 10.2223 17.9206 9.03314 17.9206 7.79331C17.9206 6.55347 18.4129 5.36436 19.2892 4.48733C20.1663 3.61096 21.3554 3.11868 22.5952 3.11868C23.8351 3.11868 25.0242 3.61096 25.9012 4.48733V4.48651Z" fill="#4C4C4D"/>
</svg>
